<svg width="600" height="422" viewBox="0 0 600 422" fill="none" xmlns="http://www.w3.org/2000/svg">
<g clip-path="url(#clip0_453_1218)">
<path d="M569.825 0H320.025V180.913H569.825V0Z" fill="#DEE8F5"/>
<path d="M569.825 0H320.025V14.9028H569.825V0Z" fill="#C1D8ED"/>
<path d="M561.459 11.1902C563.524 11.1902 565.198 9.5163 565.198 7.45139C565.198 5.38648 563.524 3.71254 561.459 3.71254C559.394 3.71254 557.72 5.38648 557.72 7.45139C557.72 9.5163 559.394 11.1902 561.459 11.1902Z" fill="white"/>
<path d="M526.142 30.7113H344.19V157.915H526.142V30.7113Z" fill="white"/>
<path d="M488.169 141.966C486.44 141.966 480.652 141.055 480.24 142.521C479.992 143.402 484.304 144.443 484.304 144.443" fill="#E98862"/>
<path d="M489.077 148.908C489.077 148.908 477.398 153.706 470.688 148.231C470.517 148.091 470.393 147.903 470.331 147.692C470.268 147.48 470.271 147.255 470.339 147.045C470.407 146.835 470.537 146.651 470.711 146.516C470.885 146.381 471.096 146.301 471.316 146.288C475.84 146.02 485.132 145.109 484.047 142.127H491.342" fill="#E98862"/>
<path d="M467.728 99.1464L461.361 102.288C461.361 102.288 455.172 101.544 456.148 93.7193C456.287 92.6106 456.944 91.3613 459.981 92.3858C459.394 91.0478 458.829 89.3566 459.288 88.8965C461.056 87.1384 466.557 95.839 467.728 99.1464Z" fill="#E98862"/>
<g opacity="0.15">
<path opacity="0.15" d="M467.728 99.1464L461.361 102.288C461.361 102.288 455.172 101.544 456.148 93.7193C456.287 92.6106 456.944 91.3613 459.981 92.3858C459.394 91.0478 458.829 89.3566 459.288 88.8965C461.056 87.1384 466.557 95.839 467.728 99.1464Z" fill="black"/>
</g>
<path d="M479.513 135.643C479.193 135.643 478.874 135.618 478.558 135.568C477.642 135.42 476.773 135.064 476.018 134.525C475.263 133.987 474.643 133.282 474.205 132.465L458.149 102.482L468.766 96.7959L481.093 119.812L500.191 101.646L508.492 110.372L483.666 133.985C482.546 135.05 481.059 135.644 479.513 135.643Z" fill="#367CFF"/>
<path d="M545.42 180.913H497.736L500.509 161.986L544.134 159.294L545.42 180.913Z" fill="#262626"/>
<path d="M530.269 99.638C530.269 99.638 525.657 97.6574 525.657 85.5411L516.387 84.5962C516.387 84.5962 518.297 95.3031 513.959 99.1074L530.269 99.638Z" fill="#E98862"/>
<g opacity="0.15">
<path opacity="0.15" d="M515.645 96.6982L522.755 90.2729L516.792 90.6991C516.787 92.7528 516.398 94.7874 515.645 96.6982Z" fill="black"/>
</g>
<path d="M497.028 163.907C499.433 169.429 546.646 171.724 547.276 162.009C547.678 155.826 542.23 150.433 542.23 138.38C542.23 126.326 553.315 110.943 544.282 101.91C541.661 99.29 537.137 97.598 531.62 97.592C531.208 100.81 511.675 100.824 511.526 97.6671C510.78 97.6784 510.201 97.6897 509.84 97.707C490.811 98.5271 499.173 120.182 499.356 136.091C499.58 154.708 494.551 158.217 497.028 163.907Z" fill="#367CFF"/>
<path d="M530.455 80.4492C530.123 84.1527 528.414 87.7735 525.289 89.2175C521.893 90.8984 518.137 91.7229 514.348 91.6191C504.285 91.6191 504.398 68.7267 508.782 63.922C513.167 59.1173 527.324 60.7717 529.624 68.0179C530.813 71.765 530.772 76.9238 530.455 80.4492Z" fill="#E98862"/>
<path d="M515.858 78.8113C516.316 78.8113 516.688 78.4394 516.688 77.9807C516.688 77.5219 516.316 77.1501 515.858 77.1501C515.399 77.1501 515.027 77.5219 515.027 77.9807C515.027 78.4394 515.399 78.8113 515.858 78.8113Z" fill="#0F1011"/>
<path d="M509.28 78.8113C509.739 78.8113 510.111 78.4394 510.111 77.9807C510.111 77.5219 509.739 77.1501 509.28 77.1501C508.821 77.1501 508.449 77.5219 508.449 77.9807C508.449 78.4394 508.821 78.8113 509.28 78.8113Z" fill="#0F1011"/>
<path d="M507.667 76.3345C507.566 76.3348 507.47 76.2962 507.397 76.2268C507.324 76.1574 507.281 76.0625 507.276 75.9621C507.272 75.8616 507.306 75.7632 507.372 75.6875C507.439 75.6118 507.531 75.5646 507.632 75.5558L509.823 75.3483C509.927 75.3383 510.029 75.3697 510.109 75.4355C510.189 75.5014 510.24 75.5963 510.25 75.6993C510.26 75.8024 510.228 75.9052 510.162 75.9851C510.097 76.065 510.002 76.1156 509.899 76.1255L507.707 76.333L507.667 76.3345Z" fill="#0F1011"/>
<path d="M517.49 76.3345C517.47 76.3345 517.449 76.333 517.429 76.33L515.223 75.9865C515.121 75.9705 515.029 75.9146 514.968 75.831C514.907 75.7474 514.882 75.643 514.898 75.5407C514.914 75.4384 514.97 75.3467 515.053 75.2857C515.137 75.2246 515.241 75.1993 515.343 75.2152L517.55 75.5587C517.647 75.5737 517.735 75.6247 517.796 75.7018C517.857 75.7788 517.887 75.8761 517.879 75.9741C517.872 76.0722 517.828 76.1638 517.755 76.2306C517.683 76.2975 517.589 76.3345 517.49 76.3345Z" fill="#0F1011"/>
<path d="M516.009 84.5346C514.278 84.8528 512.505 84.8528 510.774 84.5346C510.774 84.5346 510.956 86.5468 513.391 86.5468C515.827 86.5468 516.009 84.5346 516.009 84.5346Z" fill="white"/>
<path d="M522.954 71.5395C523.448 88.2712 525.875 89.8053 525.875 89.8053C525.875 89.8053 533.789 84.1166 534.055 74.0201C534.305 64.5572 526.94 59.5878 522.185 58.9249C504.115 56.412 503.481 72.7287 503.481 72.7287C512.55 74.2832 524.903 71.7147 524.903 71.7147" fill="#0F1011"/>
<path d="M520.332 79.6539C520.325 80.1208 520.411 80.5845 520.585 81.0179C520.759 81.4512 521.018 81.8457 521.345 82.1783C521.673 82.5109 522.064 82.7751 522.495 82.9554C522.925 83.1356 523.388 83.2285 523.855 83.2285C524.322 83.2285 524.784 83.1356 525.215 82.9554C525.645 82.7751 526.036 82.5109 526.364 82.1783C526.692 81.8457 526.95 81.4512 527.124 81.0179C527.298 80.5845 527.384 80.1208 527.377 79.6539C527.385 79.1891 527.299 78.7274 527.125 78.2964C526.951 77.8655 526.691 77.474 526.363 77.1452C526.034 76.8165 525.643 76.5573 525.212 76.383C524.781 76.2087 524.319 76.1229 523.854 76.1308C521.345 76.2548 520.332 77.7086 520.332 79.6539Z" fill="#E98862"/>
<path d="M537.334 74.0208C541.77 74.0208 545.366 70.4246 545.366 65.9884C545.366 61.5522 541.77 57.9559 537.334 57.9559C532.898 57.9559 529.302 61.5522 529.302 65.9884C529.302 70.4246 532.898 74.0208 537.334 74.0208Z" fill="#0F1011"/>
<path d="M511.526 97.6671C511.676 100.824 513.389 105.461 518.683 105.811C525.736 106.275 531.208 100.81 531.62 97.592H531.603C524.659 97.592 515.574 97.604 511.526 97.6671Z" fill="#E98862"/>
<path d="M522.756 153.919C522.692 153.919 522.629 153.919 522.564 153.919L486.528 152.816L486.91 140.317L518.872 141.295L535.734 106.005L547.016 111.397L528.396 150.364C527.888 151.429 527.088 152.327 526.09 152.956C525.092 153.585 523.936 153.919 522.756 153.919Z" fill="#367CFF"/>
<g opacity="0.15">
<path opacity="0.15" d="M512.534 82.8763C512.513 82.8765 512.492 82.8745 512.472 82.8703L510.428 82.4193C510.389 82.4106 510.351 82.3935 510.319 82.3692C510.286 82.3449 510.259 82.314 510.239 82.2784C510.22 82.2429 510.208 82.2035 510.205 82.163C510.201 82.1225 510.207 82.0818 510.22 82.0435L511.292 79.0172C511.317 78.9456 511.37 78.8869 511.439 78.8542C511.508 78.8215 511.586 78.8174 511.658 78.8428C511.73 78.8683 511.788 78.9211 511.821 78.9897C511.854 79.0584 511.858 79.1372 511.832 79.2089L510.869 81.933L512.598 82.3088C512.667 82.3233 512.729 82.3632 512.771 82.4208C512.813 82.4783 512.832 82.5494 512.824 82.6202C512.816 82.6909 512.783 82.7563 512.729 82.8035C512.676 82.8507 512.607 82.8764 512.536 82.8756L512.534 82.8763Z" fill="black"/>
</g>
<path d="M438.958 65.6216L461.784 102.01C461.892 102.182 462.032 102.331 462.197 102.449C462.363 102.566 462.549 102.65 462.747 102.695C462.945 102.74 463.149 102.746 463.349 102.713C463.549 102.679 463.741 102.606 463.913 102.498C464.084 102.39 464.233 102.25 464.351 102.085C464.468 101.919 464.552 101.732 464.597 101.535C464.643 101.337 464.648 101.133 464.615 100.933C464.581 100.733 464.508 100.541 464.4 100.369L464.374 100.328L440.398 64.6812C440.336 64.5866 440.257 64.5052 440.163 64.4414C440.07 64.3777 439.965 64.3329 439.855 64.3097C439.744 64.2865 439.63 64.2853 439.519 64.3062C439.408 64.327 439.303 64.3695 439.208 64.4313C439.113 64.493 439.032 64.5728 438.968 64.666C438.904 64.7592 438.86 64.8641 438.836 64.9746C438.813 65.0852 438.812 65.1992 438.833 65.3102C438.854 65.4212 438.896 65.527 438.958 65.6216Z" fill="#0F1011"/>
<path d="M455.419 91.4372C456.627 90.9606 459.419 91.0298 460.181 92.3843C461.47 94.6769 461.867 99.9455 460.523 100.539C459.179 101.132 456.825 100.91 456.13 99.3359C455.435 97.7618 454.442 91.8243 455.419 91.4372Z" fill="#E98862"/>
<path d="M600 421.43H0C6.5746 404.663 18.7158 390.44 35.8307 386.22C60.8678 380.056 87.3632 397.007 112.348 390.632C126.54 387.015 137.714 376.474 149.455 367.721C193.75 334.696 254.448 324.934 306.867 342.414C334.264 351.547 359.229 367.52 387.293 374.308C423.585 383.092 461.537 375.811 498.858 374.608C535.202 373.438 587.281 388.251 600 421.43Z" fill="#F3F5FD"/>
<path d="M524.49 247.324L516.744 249.156L526.456 290.234L534.202 288.403L524.49 247.324Z" fill="#F0F6FF"/>
<path d="M533.014 244.138L526.363 280.194L530.663 280.988L537.314 244.932L533.014 244.138Z" fill="#C1D8ED"/>
<path d="M533.016 244.127L532.259 248.104L536.555 248.921L537.312 244.944L533.016 244.127Z" fill="#DEE8F5"/>
<path d="M519.699 253.296L517.311 254.237L531.247 289.614L533.635 288.673L519.699 253.296Z" fill="#0CBC8B"/>
<path d="M537.654 268.78H516.647V295.63H537.654V268.78Z" fill="#C1D8ED"/>
<path d="M460.57 344.13H452.713V421.43H460.57V344.13Z" fill="#C1D8ED"/>
<path d="M454.104 344.13H446.247V421.43H454.104V344.13Z" fill="#DEE8F5"/>
<path d="M558.437 344.13H550.58V421.43H558.437V344.13Z" fill="#C1D8ED"/>
<path d="M551.971 344.13H544.114V421.43H551.971V344.13Z" fill="#DEE8F5"/>
<path d="M482.12 344.13H474.263V421.43H482.12V344.13Z" fill="#C1D8ED"/>
<path d="M475.654 344.13H467.797V421.43H475.654V344.13Z" fill="#DEE8F5"/>
<path d="M579.988 344.13H572.131V421.43H579.988V344.13Z" fill="#C1D8ED"/>
<path d="M573.522 344.13H565.665V421.43H573.522V344.13Z" fill="#DEE8F5"/>
<path d="M579.988 294.651H474.312V345.983H579.988V294.651Z" fill="#C1D8ED"/>
<path d="M551.923 294.651H446.247V345.983H551.923V294.651Z" fill="#DEE8F5"/>
<g opacity="0.53">
<path opacity="0.53" d="M546.237 301.948H451.931V338.459H546.237V301.948Z" fill="#F3F5FD"/>
</g>
<path d="M499.084 324.391C501.397 324.391 503.272 322.516 503.272 320.203C503.272 317.89 501.397 316.015 499.084 316.015C496.771 316.015 494.896 317.89 494.896 320.203C494.896 322.516 496.771 324.391 499.084 324.391Z" fill="white"/>
<path d="M203.486 61.9203C218.549 61.9203 230.76 49.7083 230.76 34.6441C230.76 19.5799 218.549 7.36795 203.486 7.36795C188.422 7.36795 176.211 19.5799 176.211 34.6441C176.211 49.7083 188.422 61.9203 203.486 61.9203Z" fill="#C1D8ED"/>
<path d="M209.044 61.9203C224.107 61.9203 236.319 49.7083 236.319 34.6441C236.319 19.5799 224.107 7.36795 209.044 7.36795C193.981 7.36795 181.769 19.5799 181.769 34.6441C181.769 49.7083 193.981 61.9203 209.044 61.9203Z" fill="#DEE8F5"/>
<path d="M209.044 57.9018C221.888 57.9018 232.301 47.489 232.301 34.6441C232.301 21.7993 221.888 11.3864 209.044 11.3864C196.2 11.3864 185.788 21.7993 185.788 34.6441C185.788 47.489 196.2 57.9018 209.044 57.9018Z" fill="#F3F5FD"/>
<path d="M209.045 36.7902C208.854 36.7902 208.666 36.7413 208.5 36.6481L197.278 30.34C197.021 30.1955 196.832 29.9547 196.752 29.6708C196.673 29.3868 196.709 29.0828 196.854 28.8258C196.998 28.5687 197.239 28.3796 197.523 28.3C197.807 28.2204 198.111 28.2569 198.368 28.4014L207.932 33.7782V18.4913C207.94 18.2014 208.06 17.9258 208.268 17.7234C208.476 17.521 208.754 17.4077 209.045 17.4077C209.335 17.4077 209.613 17.521 209.821 17.7234C210.029 17.9258 210.149 18.2014 210.157 18.4913V35.6784C210.157 35.8245 210.128 35.9691 210.072 36.104C210.016 36.2389 209.934 36.3615 209.831 36.4648C209.728 36.568 209.605 36.6499 209.47 36.7057C209.336 36.7616 209.191 36.7903 209.045 36.7902Z" fill="#DEE8F5"/>
<path d="M224.15 236.084C223.957 236.08 177.209 236.177 177.116 236.177C170.559 236.177 168.025 239.977 168.025 239.977V242.026H231.941V239.977C229.054 238.019 226.426 236.027 224.15 236.084Z" fill="#DEE8F5"/>
<path d="M215.244 240.482C215.244 240.482 218.616 235.64 224.15 236.084C225.651 236.14 227.123 236.516 228.466 237.188C229.81 237.859 230.995 238.81 231.941 239.977V242.026H197.148V239.977C197.148 239.977 199.682 236.177 206.243 236.177C212.804 236.177 215.244 240.482 215.244 240.482Z" fill="#C1D8ED"/>
<path d="M197.148 239.977H168.025V242.025H197.148V239.977Z" fill="#C1D8ED"/>
<path d="M93.033 304.539L62.4402 420.852L66.8017 422L97.3945 305.687L93.033 304.539Z" fill="#C1D8ED"/>
<path d="M147.247 304.762L142.791 305.461L161.028 421.776L165.483 421.077L147.247 304.762Z" fill="#C1D8ED"/>
<path d="M88.9386 193.54C88.9386 193.54 51.6836 191.187 51.6836 223.739C51.6836 256.291 57.1706 301.782 84.625 306.88C112.079 311.979 152.634 310.443 162.054 308.845C173.622 306.884 178.665 280.048 163.256 278.252C119.527 273.153 140.707 197.071 88.9386 193.54Z" fill="#C1D8ED"/>
<path d="M160.158 398.917L158.74 417.302L174.478 418.516L175.895 400.131L160.158 398.917Z" fill="#E98862"/>
<path d="M194.476 421.289C194.881 421.287 195.282 421.205 195.656 421.049C196.03 420.892 196.369 420.663 196.654 420.375C196.94 420.087 197.165 419.746 197.319 419.371C197.472 418.995 197.55 418.594 197.548 418.188C197.548 418.113 197.548 418.038 197.539 417.963C197.493 417.376 197.281 416.815 196.927 416.345C196.573 415.875 196.093 415.516 195.542 415.31L177.169 409.156C176.813 409.038 176.436 408.999 176.064 409.04C175.691 409.082 175.332 409.203 175.01 409.397C172.485 411.149 169.463 412.045 166.391 411.952C163.997 411.782 161.7 410.942 159.761 409.529C159.591 409.389 159.384 409.301 159.165 409.274C158.946 409.247 158.724 409.283 158.525 409.377C158.326 409.472 158.158 409.621 158.04 409.808C157.923 409.994 157.861 410.21 157.861 410.431V419.415C157.861 419.949 158.073 420.461 158.451 420.838C158.828 421.216 159.34 421.428 159.874 421.428H159.882L194.476 421.289Z" fill="#C1D8ED"/>
<path d="M238.421 398.214L222.855 400.832L225.947 419.218L241.513 416.6L238.421 398.214Z" fill="#E98862"/>
<path d="M246.463 402.238L211.812 268.903C211.038 265.923 209.297 263.285 206.862 261.402C204.427 259.519 201.436 258.496 198.358 258.496H122.403V258.544H79.8535V271.582C79.8534 275.341 80.5938 279.064 82.0324 282.537C83.471 286.011 85.5796 289.167 88.2379 291.825C90.8962 294.484 94.052 296.593 97.5253 298.031C100.998 299.47 104.721 300.211 108.48 300.211H129.233V300.293H165.462L155.487 406.369L183.176 408.973L192.821 306.402L219.55 409.235L246.463 402.238Z" fill="#262626"/>
<path d="M188.597 194.817C188.597 194.817 188.71 185.789 195.163 186.259C199.234 186.555 218.577 185.657 218.865 187.419C219.578 191.779 201.884 192.845 200.278 196.907L188.597 194.817Z" fill="#E98862"/>
<path d="M192.878 186.548C192.878 186.548 201.859 183.616 204.067 184.143C206.021 184.608 201.947 187.789 201.947 187.789L192.878 186.548Z" fill="#E98862"/>
<path d="M170.046 234.432L202.091 197.123L188.28 189.357L162.62 218.227L142.552 182.304C140.653 176.626 136.328 172.822 127.504 172.442C127.03 172.427 126.271 172.404 125.294 172.389C125.099 176.524 99.4902 176.508 98.949 172.292C91.7182 172.299 85.7802 174.524 82.3528 177.952C70.5144 189.791 85.0436 209.966 85.0436 225.751C85.0436 241.536 77.903 248.617 78.4292 256.72C79.256 269.454 141.139 266.447 144.288 259.208C146.4 254.358 144.353 250.714 142.743 242.042H170.045L170.046 234.432ZM141.237 222.744C141.268 220.089 141.473 217.31 141.755 214.482L147.994 225.652H141.239C141.23 224.712 141.226 223.751 141.239 222.745L141.237 222.744Z" fill="#367CFF"/>
<path d="M125.298 172.39C125.103 176.524 122.848 182.605 115.918 183.056C106.665 183.672 99.4946 176.509 98.9534 172.292H98.9834C108.075 172.292 119.981 172.307 125.298 172.39Z" fill="#E98862"/>
<path d="M259.345 421.289C259.751 421.287 260.152 421.205 260.526 421.048C260.9 420.891 261.239 420.662 261.524 420.374C261.81 420.086 262.035 419.745 262.189 419.369C262.342 418.994 262.42 418.592 262.418 418.187C262.418 418.111 262.418 418.036 262.409 417.961C262.363 417.375 262.15 416.813 261.796 416.343C261.442 415.874 260.962 415.515 260.41 415.309L242.039 409.155C241.683 409.037 241.306 408.997 240.933 409.039C240.56 409.08 240.201 409.202 239.879 409.395C237.354 411.147 234.333 412.043 231.26 411.951C228.867 411.78 226.569 410.941 224.63 409.527C224.46 409.388 224.253 409.3 224.034 409.274C223.816 409.247 223.594 409.283 223.395 409.378C223.196 409.472 223.028 409.621 222.911 409.807C222.793 409.993 222.731 410.209 222.731 410.429V419.413C222.73 419.947 222.942 420.459 223.319 420.837C223.696 421.214 224.207 421.427 224.741 421.428H224.749L259.345 421.289Z" fill="#C1D8ED"/>
<path d="M43.8499 249.328H36.7913V421.43H43.8499V249.328Z" fill="#DEE8F5"/>
<path d="M384.324 249.328H377.265V421.43H384.324V249.328Z" fill="#C1D8ED"/>
<path d="M384.323 247.171H320.663V409.662H384.323V247.171Z" fill="#C1D8ED"/>
<path d="M315.013 397.894H307.954V421.43H315.013V397.894Z" fill="#C1D8ED"/>
<path d="M394.082 242.22H27.032V251.927H394.082V242.22Z" fill="#DEE8F5"/>
<path d="M324.192 249.328H317.134V421.43H324.192V249.328Z" fill="#DEE8F5"/>
<path d="M254.881 249.328H247.823V421.43H254.881V249.328Z" fill="#DEE8F5"/>
<path d="M320.663 251.939H251.352V409.662H320.663V251.939Z" fill="#DEE8F5"/>
<path d="M250.864 198.776L241.738 237.091C241.596 237.687 241.591 238.307 241.724 238.906C241.856 239.504 242.122 240.064 242.501 240.545C242.881 241.026 243.365 241.415 243.916 241.682C244.467 241.949 245.072 242.088 245.685 242.089H299.49C300.379 242.089 301.244 241.797 301.95 241.258C302.657 240.719 303.168 239.962 303.403 239.105L313.92 200.791C314.085 200.189 314.109 199.557 313.99 198.944C313.87 198.331 313.612 197.754 313.233 197.257C312.854 196.76 312.366 196.358 311.807 196.081C311.247 195.803 310.631 195.659 310.007 195.659H254.812C253.899 195.659 253.013 195.967 252.297 196.532C251.581 197.098 251.076 197.888 250.864 198.776Z" fill="#9EBCEA"/>
<path d="M222.583 242.089H287.614C288.247 242.089 288.853 241.838 289.3 241.39C289.747 240.943 289.999 240.337 289.999 239.704C289.999 239.072 289.747 238.466 289.3 238.018C288.853 237.571 288.247 237.32 287.614 237.32H222.583C222.27 237.32 221.96 237.382 221.671 237.502C221.382 237.621 221.119 237.797 220.897 238.018C220.676 238.24 220.5 238.503 220.38 238.792C220.261 239.081 220.199 239.391 220.199 239.704C220.199 240.017 220.261 240.328 220.38 240.617C220.5 240.906 220.676 241.169 220.897 241.39C221.119 241.612 221.382 241.787 221.671 241.907C221.96 242.027 222.27 242.089 222.583 242.089Z" fill="#9EBCEA"/>
<path d="M280.032 224.859C283.546 224.859 286.395 222.01 286.395 218.496C286.395 214.981 283.546 212.132 280.032 212.132C276.517 212.132 273.668 214.981 273.668 218.496C273.668 222.01 276.517 224.859 280.032 224.859Z" fill="white"/>
<path d="M181.145 238.105C179.68 239.255 173.336 239.616 170.044 239.728V227.529C171.72 226.627 173.809 225.462 175.365 224.469C177.523 223.086 178.5 222.688 179.041 222.838H179.048C179.176 222.875 179.291 222.948 179.379 223.049C179.452 223.13 179.508 223.224 179.544 223.327C179.898 224.281 178.282 225.717 177.387 226.424L177.38 226.431C177.057 226.687 176.823 226.852 176.823 226.852L178.733 227.732L178.74 227.739L180.409 228.513L180.431 228.521L181.333 228.934C181.333 228.934 181.491 229.596 181.664 230.565V230.573C182.068 232.896 182.557 237 181.145 238.105Z" fill="#E98862"/>
<path d="M191.973 238.121L188.094 236.798L176.669 225.736L175.118 224.229L172.347 221.548L174.941 218.874L177.737 221.582L179.293 223.083L190.684 234.119L191.973 238.121Z" fill="#0CBC8B"/>
<path d="M179.293 223.083L176.669 225.736L175.118 224.229L177.737 221.582L179.293 223.083Z" fill="white"/>
<path d="M177.975 226.61C178.958 226.628 179.94 226.709 180.912 226.854C181.915 226.984 182.903 227.206 183.864 227.518C184.398 227.688 184.915 227.908 185.408 228.175C185.684 228.327 185.948 228.501 186.197 228.695L186.749 229.173C187.476 229.828 188.14 230.55 188.732 231.331C188.893 231.545 188.974 231.81 188.959 232.079C188.943 232.347 188.834 232.601 188.649 232.797C188.465 232.992 188.217 233.116 187.95 233.146C187.683 233.176 187.414 233.11 187.19 232.961L187.138 232.926L184.958 231.464L184.412 231.106C184.286 231.034 184.155 230.97 184.021 230.913C183.686 230.778 183.34 230.673 182.986 230.599C182.172 230.428 181.348 230.31 180.519 230.245C179.671 230.178 178.767 230.128 177.95 230.114H177.912C177.682 230.11 177.455 230.06 177.244 229.969C177.033 229.877 176.842 229.744 176.683 229.579C176.523 229.413 176.397 229.218 176.313 229.004C176.229 228.79 176.187 228.561 176.191 228.331C176.195 228.101 176.245 227.875 176.337 227.664C176.428 227.453 176.561 227.262 176.726 227.102C176.892 226.942 177.087 226.817 177.301 226.732C177.515 226.648 177.744 226.607 177.974 226.611L177.975 226.61Z" fill="#E98862"/>
<path d="M131.818 130.809C131.818 130.809 137.516 151.223 140.716 161.817C140.868 162.319 140.9 162.849 140.81 163.366C140.719 163.882 140.51 164.37 140.197 164.791C139.884 165.212 139.477 165.554 139.008 165.789C138.54 166.024 138.023 166.146 137.498 166.146H117.505C116.641 166.146 115.811 165.813 115.186 165.217C114.561 164.621 114.189 163.807 114.148 162.944L112.8 134.526L131.818 130.809Z" fill="#0F1011"/>
<path d="M101.177 176.221C101.177 176.221 106.992 173.144 105.708 157.315L117.719 155.099C117.719 155.099 116.357 169.289 122.428 173.799L101.177 176.221Z" fill="#E98862"/>
<g opacity="0.15">
<path opacity="0.15" d="M119.97 170.831L110.001 163.189L117.836 163.114C118.06 165.797 118.784 168.414 119.97 170.831Z" fill="black"/>
</g>
<path d="M98.9001 151.172C99.7269 155.975 102.343 160.525 106.578 162.079C111.193 163.916 116.188 164.596 121.126 164.058C134.273 162.993 131.699 133.098 125.463 127.286C119.227 121.474 100.907 125.134 98.6701 134.844C97.5133 139.866 98.1131 146.604 98.9001 151.172Z" fill="#E98862"/>
<path d="M117.71 147.49C118.312 147.49 118.799 147.002 118.799 146.401C118.799 145.799 118.312 145.312 117.71 145.312C117.108 145.312 116.621 145.799 116.621 146.401C116.621 147.002 117.108 147.49 117.71 147.49Z" fill="#0F1011"/>
<path d="M126.303 146.793C126.904 146.793 127.392 146.305 127.392 145.704C127.392 145.102 126.904 144.615 126.303 144.615C125.701 144.615 125.214 145.102 125.214 145.704C125.214 146.305 125.701 146.793 126.303 146.793Z" fill="#0F1011"/>
<path d="M128.192 143.385H128.186L125.298 143.345C125.163 143.343 125.033 143.288 124.938 143.191C124.844 143.094 124.791 142.963 124.793 142.827C124.795 142.691 124.85 142.562 124.947 142.467C125.045 142.372 125.176 142.32 125.311 142.321L128.197 142.36C128.333 142.361 128.462 142.416 128.558 142.513C128.653 142.609 128.706 142.74 128.705 142.876C128.704 143.011 128.65 143.141 128.553 143.237C128.456 143.332 128.326 143.385 128.19 143.384L128.192 143.385Z" fill="#0F1011"/>
<path d="M115.361 144.425C115.236 144.425 115.115 144.379 115.022 144.296C114.928 144.212 114.869 144.098 114.854 143.973C114.839 143.849 114.871 143.724 114.942 143.621C115.014 143.518 115.121 143.445 115.242 143.416L118.087 142.734C118.153 142.717 118.221 142.713 118.289 142.722C118.356 142.732 118.421 142.755 118.48 142.789C118.538 142.824 118.589 142.871 118.63 142.926C118.67 142.981 118.699 143.043 118.715 143.109C118.731 143.176 118.733 143.245 118.722 143.312C118.711 143.379 118.687 143.444 118.651 143.501C118.614 143.559 118.567 143.609 118.511 143.648C118.455 143.687 118.392 143.715 118.326 143.729L115.481 144.411C115.442 144.421 115.402 144.425 115.361 144.425Z" fill="#0F1011"/>
<path d="M118.206 154.979C118.206 154.979 122.226 155.407 125.046 154.425C125.046 154.425 125.021 157.072 121.839 157.331C118.658 157.589 118.206 154.979 118.206 154.979Z" fill="white"/>
<g opacity="0.15">
<path opacity="0.15" d="M122.539 152.446C122.449 152.446 122.362 152.414 122.294 152.355C122.226 152.296 122.181 152.215 122.168 152.126C122.155 152.037 122.174 151.946 122.222 151.87C122.27 151.794 122.343 151.738 122.429 151.711L124.644 151.035L123.098 147.583C123.076 147.538 123.063 147.489 123.06 147.438C123.058 147.388 123.065 147.338 123.082 147.29C123.099 147.243 123.126 147.2 123.16 147.163C123.195 147.126 123.236 147.096 123.282 147.076C123.328 147.055 123.377 147.044 123.428 147.043C123.478 147.042 123.528 147.051 123.575 147.07C123.622 147.088 123.664 147.116 123.7 147.151C123.736 147.187 123.764 147.229 123.783 147.276L125.678 151.505L122.65 152.433C122.614 152.443 122.576 152.447 122.539 152.446Z" fill="black"/>
</g>
<path d="M132.504 133.256C132.504 133.256 130.579 117.687 105.633 121.51C99.4135 122.463 90.5998 127.319 89.1717 143.234C88.5192 150.534 86.0027 157.417 84.0831 161.774C83.8559 162.286 83.76 162.846 83.8042 163.404C83.8484 163.962 84.0312 164.5 84.336 164.969C84.6409 165.438 85.0581 165.824 85.5499 166.091C86.0416 166.359 86.5924 166.499 87.152 166.499L104.688 166.505C105.578 166.507 106.432 166.154 107.062 165.526C107.692 164.898 108.047 164.046 108.049 163.156C108.049 163.106 108.049 163.056 108.049 163.005C107.923 160.02 107.824 154.967 107.994 147.243C108.905 142.834 106.477 139.726 110.002 140.739C123.091 144.495 131.521 133.508 132.504 133.256Z" fill="#0F1011"/>
<path d="M112.206 151.087C112.255 151.692 112.185 152.3 111.999 152.877C111.813 153.454 111.515 153.989 111.122 154.451C110.73 154.913 110.25 155.293 109.71 155.57C109.17 155.847 108.582 156.014 107.977 156.063C107.373 156.112 106.765 156.042 106.188 155.856C105.611 155.67 105.076 155.372 104.614 154.979C103.681 154.186 103.101 153.055 103.002 151.834C102.885 150.636 103.248 149.44 104.012 148.51C104.776 147.579 105.878 146.991 107.076 146.873C107.128 146.868 107.179 146.864 107.231 146.861C110.522 146.755 112 148.548 112.206 151.087Z" fill="#E98862"/>
<path d="M442.491 126.08H372.196C371.897 126.08 371.61 125.961 371.399 125.75C371.187 125.538 371.068 125.251 371.068 124.952V54.6538C371.068 54.4308 371.135 54.2128 371.259 54.0274C371.382 53.842 371.559 53.6975 371.765 53.6123C371.971 53.527 372.197 53.5047 372.416 53.5483C372.635 53.5918 372.836 53.6993 372.993 53.857L443.287 124.156C443.445 124.313 443.552 124.514 443.596 124.733C443.639 124.951 443.617 125.178 443.531 125.384C443.446 125.59 443.302 125.766 443.117 125.89C442.931 126.013 442.714 126.08 442.491 126.08ZM373.323 123.825H439.768L373.323 57.3764V123.825Z" fill="#C1D8ED"/>
<path d="M386.521 126.08H372.196C371.897 126.08 371.61 125.961 371.399 125.75C371.187 125.538 371.068 125.251 371.068 124.952V110.627C371.068 110.328 371.187 110.041 371.399 109.83C371.61 109.618 371.897 109.499 372.196 109.499H386.521C386.82 109.499 387.107 109.618 387.319 109.83C387.53 110.041 387.649 110.328 387.649 110.627V124.952C387.649 125.251 387.53 125.538 387.319 125.75C387.107 125.961 386.82 126.08 386.521 126.08ZM373.323 123.825H385.394V111.754H373.323V123.825Z" fill="#C1D8ED"/>
</g>
<defs>
<clipPath id="clip0_453_1218">
<rect width="600" height="422" fill="white"/>
</clipPath>
</defs>
</svg>
